<?xml version="1.0" encoding="UTF-8" standalone="no"?>
<!-- Created with Inkscape (http://www.inkscape.org/) -->

<svg
   width="8.9958296mm"
   height="15.956476mm"
   viewBox="0 0 8.9958296 15.956476"
   version="1.1"
   id="svg5"
   xml:space="preserve"
   inkscape:version="1.2.1 (9c6d41e, 2022-07-14)"
   sodipodi:docname="left-arrow.svg"
   xmlns:inkscape="http://www.inkscape.org/namespaces/inkscape"
   xmlns:sodipodi="http://sodipodi.sourceforge.net/DTD/sodipodi-0.dtd"
   xmlns="http://www.w3.org/2000/svg"
   xmlns:svg="http://www.w3.org/2000/svg"><sodipodi:namedview
     id="namedview7"
     pagecolor="#ffffff"
     bordercolor="#000000"
     borderopacity="0.25"
     inkscape:showpageshadow="2"
     inkscape:pageopacity="0.0"
     inkscape:pagecheckerboard="0"
     inkscape:deskcolor="#d1d1d1"
     inkscape:document-units="mm"
     showgrid="false"
     inkscape:zoom="0.89152564"
     inkscape:cx="-77.956254"
     inkscape:cy="13.460073"
     inkscape:window-width="1309"
     inkscape:window-height="822"
     inkscape:window-x="0"
     inkscape:window-y="38"
     inkscape:window-maximized="0"
     inkscape:current-layer="layer1" /><defs
     id="defs2" /><g
     inkscape:label="Layer 1"
     inkscape:groupmode="layer"
     id="layer1"
     transform="translate(-142.58652,-139.8156)"><path
       style="fill:#000000;stroke-width:0.176389"
       d="m 151.37069,140.02727 c 0.11641,0.11641 0.21166,0.449 0.21166,0.73909 0,0.44844 -0.48839,1.01828 -3.26114,3.80502 l -3.26113,3.2776 3.26698,3.25935 c 2.92404,2.91721 3.26175,3.31448 3.21705,3.7845 -0.0544,0.57187 -0.64245,0.99376 -1.18678,0.85142 -0.17231,-0.0451 -1.99123,-1.76651 -4.04205,-3.82543 -2.79645,-2.8075 -3.72876,-3.85027 -3.72876,-4.17054 0,-0.32081 0.93349,-1.36052 3.75283,-4.17986 3.23156,-3.23156 3.82691,-3.75282 4.28625,-3.75282 0.29338,0 0.62867,0.0952 0.74509,0.21167 z"
       id="path71" /></g></svg>
